<?xml version="1.0" encoding="UTF-8" standalone="no"?>
<!-- Created with Inkscape (http://www.inkscape.org/) -->

<svg
   xmlns:dc="http://purl.org/dc/elements/1.1/"
   xmlns:cc="http://creativecommons.org/ns#"
   xmlns:rdf="http://www.w3.org/1999/02/22-rdf-syntax-ns#"
   xmlns:svg="http://www.w3.org/2000/svg"
   xmlns="http://www.w3.org/2000/svg"
   xmlns:sodipodi="http://sodipodi.sourceforge.net/DTD/sodipodi-0.dtd"
   xmlns:inkscape="http://www.inkscape.org/namespaces/inkscape"
   width="13.229167mm"
   height="13.229167mm"
   viewBox="0 0 13.229167 13.229167"
   version="1.1"
   id="svg8"
   inkscape:version="0.92.1 r15371"
   sodipodi:docname="path.svg">
  <defs
     id="defs2" />
  <sodipodi:namedview
     id="base"
     pagecolor="#ffffff"
     bordercolor="#666666"
     borderopacity="1.0"
     inkscape:pageopacity="0.0"
     inkscape:pageshadow="2"
     inkscape:zoom="5.6"
     inkscape:cx="43.25509"
     inkscape:cy="12.807043"
     inkscape:document-units="mm"
     inkscape:current-layer="layer1"
     showgrid="false"
     inkscape:window-width="1000"
     inkscape:window-height="761"
     inkscape:window-x="909"
     inkscape:window-y="243"
     inkscape:window-maximized="0" />
  <metadata
     id="metadata5">
    <rdf:RDF>
      <cc:Work
         rdf:about="">
        <dc:format>image/svg+xml</dc:format>
        <dc:type
           rdf:resource="http://purl.org/dc/dcmitype/StillImage" />
        <dc:title></dc:title>
      </cc:Work>
    </rdf:RDF>
  </metadata>
  <g
     inkscape:label="Layer 1"
     inkscape:groupmode="layer"
     id="layer1"
     transform="translate(-122.65327,-145.0437)">
    <g
       id="g4124"
       transform="matrix(0.49999998,0,0,0.49999998,122.65327,145.0437)">
      <g
         transform="translate(-161.8683,-217.53051)"
         style="display:none"
         id="layer1-3"
         inkscape:label="Layer 1">
        <g
           transform="matrix(0.26458333,0,0,0.26458333,-429.83466,-4.3227505)"
           id="g143">
          <g
             id="g14">
            <g
               id="g12">
              <path
                 inkscape:connector-curvature="0"
                 d="M 503.983,4.276 H 8.017 C 3.589,4.276 0,7.865 0,12.292 v 102.614 384.802 c 0,4.427 3.589,8.017 8.017,8.017 h 495.967 c 4.428,0 8.017,-3.589 8.017,-8.017 V 114.906 12.292 C 512,7.865 508.412,4.276 503.983,4.276 Z m -8.016,487.415 H 16.033 V 122.923 h 479.933 v 368.768 z m 0,-384.802 H 16.033 v -86.58 h 479.933 v 86.58 z"
                 id="path10" />
            </g>
          </g>
          <g
             id="g20">
            <g
               id="g18">
              <path
                 inkscape:connector-curvature="0"
                 d="M 427.023,38.48 H 332.96 c -4.428,0 -8.017,3.589 -8.017,8.017 0,4.427 3.588,8.017 8.017,8.017 h 94.063 c 4.428,0 8.017,-3.589 8.017,-8.017 0,-4.427 -3.589,-8.017 -8.017,-8.017 z"
                 id="path16" />
            </g>
          </g>
          <g
             id="g26">
            <g
               id="g24">
              <path
                 inkscape:connector-curvature="0"
                 d="m 469.779,38.48 h -17.102 c -4.428,0 -8.017,3.589 -8.017,8.017 0,4.427 3.588,8.017 8.017,8.017 h 17.102 c 4.428,0 8.017,-3.589 8.017,-8.017 -10e-4,-4.427 -3.589,-8.017 -8.017,-8.017 z"
                 id="path22" />
            </g>
          </g>
          <g
             id="g32">
            <g
               id="g30">
              <path
                 inkscape:connector-curvature="0"
                 d="m 264.551,29.929 c -18.566,0 -33.67,15.105 -33.67,33.67 0,18.565 15.105,33.67 33.67,33.67 18.565,0 33.67,-15.104 33.67,-33.67 0,-18.566 -15.104,-33.67 -33.67,-33.67 z m 0,51.307 c -9.725,0 -17.637,-7.912 -17.637,-17.637 0,-9.725 7.912,-17.637 17.637,-17.637 9.725,0 17.637,7.912 17.637,17.637 0,9.725 -7.912,17.637 -17.637,17.637 z"
                 id="path28" />
            </g>
          </g>
          <g
             id="g38">
            <g
               id="g36">
              <path
                 inkscape:connector-curvature="0"
                 d="m 170.489,29.929 c -18.566,0 -33.67,15.105 -33.67,33.67 0,18.565 15.105,33.67 33.67,33.67 18.565,0 33.67,-15.104 33.67,-33.67 0,-18.566 -15.105,-33.67 -33.67,-33.67 z m 0,51.307 c -9.725,0 -17.637,-7.912 -17.637,-17.637 0,-9.725 7.912,-17.637 17.637,-17.637 9.725,0 17.637,7.912 17.637,17.637 0,9.725 -7.913,17.637 -17.637,17.637 z"
                 id="path34" />
            </g>
          </g>
          <g
             id="g44">
            <g
               id="g42">
              <path
                 inkscape:connector-curvature="0"
                 d="m 76.426,29.929 c -18.566,0 -33.67,15.105 -33.67,33.67 0,18.565 15.105,33.67 33.67,33.67 18.565,0 33.67,-15.104 33.67,-33.67 0,-18.566 -15.104,-33.67 -33.67,-33.67 z m 0,51.307 c -9.725,0 -17.637,-7.912 -17.637,-17.637 0,-9.725 7.912,-17.637 17.637,-17.637 9.725,0 17.637,7.912 17.637,17.637 0,9.725 -7.912,17.637 -17.637,17.637 z"
                 id="path40" />
            </g>
          </g>
          <g
             id="g50">
            <g
               id="g48">
              <path
                 inkscape:connector-curvature="0"
                 d="m 168.877,232.063 c 0.174,-6.422 -2.163,-12.527 -6.582,-17.191 -4.419,-4.664 -10.389,-7.327 -16.81,-7.501 -6.403,-0.175 -12.526,2.164 -17.19,6.582 l -81.236,76.96 c -4.866,4.61 -7.602,11.098 -7.507,17.801 0.095,6.703 3.015,13.112 8.011,17.581 l 81.237,72.686 c 4.417,3.951 10.109,6.126 16.028,6.126 0.001,0 0.002,0 0.003,0 6.837,0 13.371,-2.92 17.929,-8.014 8.842,-9.883 7.996,-25.117 -1.887,-33.96 l -61.769,-55.267 62.274,-58.995 c 4.661,-4.417 7.325,-10.387 7.499,-16.808 z m -18.529,5.169 -68.594,64.983 c -1.627,1.541 -2.534,3.693 -2.502,5.935 0.032,2.24 1,4.365 2.67,5.86 l 68.258,61.073 c 3.294,2.947 3.577,8.025 0.63,11.32 -1.541,1.723 -3.665,2.672 -5.982,2.672 -1.971,0 -3.867,-0.725 -5.339,-2.043 L 58.253,314.347 c -1.665,-1.49 -2.639,-3.626 -2.671,-5.86 -0.031,-2.234 0.881,-4.397 2.502,-5.933 l 81.236,-76.96 c 1.501,-1.422 3.449,-2.198 5.508,-2.198 0.074,0 0.149,0.001 0.222,0.003 2.141,0.058 4.13,0.946 5.603,2.5 1.473,1.554 2.252,3.589 2.194,5.73 -0.056,2.141 -0.944,4.131 -2.499,5.603 z"
                 id="path46" />
            </g>
          </g>
          <g
             id="g56">
            <g
               id="g54">
              <path
                 inkscape:connector-curvature="0"
                 d="m 464.942,290.914 -81.236,-76.96 c -9.626,-9.119 -24.878,-8.709 -34.001,0.919 -9.119,9.626 -8.707,24.879 0.919,33.999 l 62.274,58.995 -61.769,55.267 c -9.882,8.843 -10.729,24.076 -1.887,33.961 4.558,5.092 11.092,8.013 17.927,8.013 0.001,0 0.002,0 0.003,0 5.921,0 11.614,-2.176 16.029,-6.127 l 81.236,-72.685 c 4.997,-4.471 7.917,-10.88 8.01,-17.583 0.096,-6.702 -2.64,-13.19 -7.505,-17.799 z m -11.196,23.434 -81.236,72.685 c -1.472,1.317 -3.367,2.043 -5.339,2.043 h -10e-4 c -2.314,0 -4.438,-0.949 -5.979,-2.671 -2.948,-3.294 -2.666,-8.373 0.628,-11.321 l 68.257,-61.073 c 1.671,-1.494 2.639,-3.619 2.67,-5.86 0.032,-2.241 -0.875,-4.393 -2.502,-5.935 L 361.65,237.233 c -3.209,-3.04 -3.347,-8.125 -0.307,-11.333 1.574,-1.661 3.696,-2.499 5.822,-2.499 1.98,0 3.965,0.727 5.511,2.193 l 81.236,76.96 c 1.623,1.536 2.533,3.699 2.502,5.933 v 0.002 h 0.001 c -0.03,2.233 -1.002,4.369 -2.669,5.859 z"
                 id="path52" />
            </g>
          </g>
          <g
             id="g62">
            <g
               id="g60">
              <path
                 inkscape:connector-curvature="0"
                 d="m 317.703,233.713 c -1.67,-6.204 -5.656,-11.386 -11.222,-14.59 0,-10e-4 -10e-4,-10e-4 -10e-4,-10e-4 -11.495,-6.614 -26.226,-2.647 -32.842,8.843 l -81.236,141.094 c -6.617,11.492 -2.65,26.225 8.843,32.843 3.648,2.099 7.792,3.21 11.983,3.21 8.585,0 16.577,-4.619 20.857,-12.053 l 81.236,-141.093 c 3.205,-5.568 4.052,-12.051 2.382,-18.253 z m -16.276,10.251 -81.235,141.094 c -1.427,2.479 -4.096,4.019 -6.963,4.019 -1.409,0 -2.749,-0.36 -3.985,-1.071 -3.831,-2.205 -5.153,-7.117 -2.948,-10.948 l 81.237,-141.094 c 1.481,-2.573 4.184,-4.014 6.961,-4.014 1.356,0 2.73,0.344 3.987,1.068 1.856,1.068 3.184,2.795 3.74,4.862 0.557,2.067 0.275,4.228 -0.794,6.084 z"
                 id="path58" />
            </g>
          </g>
          <g
             id="g64" />
          <g
             id="g66" />
          <g
             id="g68" />
          <g
             id="g70" />
          <g
             id="g72" />
          <g
             id="g74" />
          <g
             id="g76" />
          <g
             id="g78" />
          <g
             id="g80" />
          <g
             id="g82" />
          <g
             id="g84" />
          <g
             id="g86" />
          <g
             id="g88" />
          <g
             id="g90" />
          <g
             id="g92" />
        </g>
      </g>
      <g
         transform="translate(-161.8683,-217.53051)"
         style="display:none"
         inkscape:label="Layer 2"
         id="layer2">
        <g
           transform="matrix(0.26458333,0,0,0.26458333,55.281291,180.29985)"
           id="g338">
          <g
             id="g280">
            <path
               inkscape:connector-curvature="0"
               d="M 323.242,142.395 182.604,1.757 C 181.479,0.632 179.952,0 178.362,0 c -1.592,0 -3.117,0.632 -4.243,1.758 l -44.686,44.688 c -1.684,1.684 -2.231,4.154 -1.365,6.373 0.372,1.008 8.777,25.021 -20.728,54.525 -18.229,18.228 -34.447,22.056 -44.843,22.056 -5.991,0 -9.63,-1.313 -9.632,-1.313 -2.217,-0.865 -4.738,-0.335 -6.423,1.348 L 1.757,174.121 c -2.343,2.343 -2.343,6.142 0,8.484 l 140.637,140.637 c 1.125,1.126 2.651,1.758 4.242,1.758 1.592,0 3.117,-0.632 4.243,-1.758 l 44.687,-44.688 c 1.684,-1.684 2.212,-4.204 1.347,-6.423 -0.095,-0.243 -9.121,-24.607 20.744,-54.473 18.232,-18.232 34.45,-22.058 44.846,-22.058 5.99,0 9.627,1.313 9.627,1.313 2.221,0.867 4.741,0.338 6.425,-1.347 l 44.689,-44.688 c 1.126,-1.126 1.758,-2.651 1.758,-4.243 -0.002,-1.589 -0.634,-3.115 -1.76,-4.24 z m -50.708,42.221 c -2.4,-0.517 -5.809,-1.015 -10.032,-1.015 -12.663,0 -32.194,4.436 -53.33,25.573 -28.421,28.42 -26.617,53.824 -24.558,63.36 l -37.979,37.979 -132.149,-132.15 37.977,-37.98 c 2.401,0.518 5.81,1.016 10.034,1.016 12.663,0 32.193,-4.436 53.327,-25.57 28.423,-28.422 26.619,-53.828 24.56,-63.364 l 37.978,-37.979 132.153,132.151 z"
               id="path274" />
            <path
               inkscape:connector-curvature="0"
               d="m 54.757,204.694 c 0,1.591 0.632,3.117 1.758,4.242 l 14.906,14.907 c 0.002,0.001 0.003,0.003 0.005,0.005 0.002,0.002 0.004,0.003 0.004,0.003 l 43.636,43.636 c 1.125,1.126 2.651,1.758 4.242,1.758 1.591,0 3.117,-0.632 4.242,-1.758 L 267.486,123.55 c 1.126,-1.125 1.758,-2.651 1.758,-4.242 0,-1.592 -0.632,-3.117 -1.758,-4.243 L 223.852,71.432 c -0.003,-0.003 -0.004,-0.005 -0.007,-0.008 -0.003,-0.003 -0.005,-0.004 -0.008,-0.007 L 208.935,56.516 c -2.342,-2.344 -6.143,-2.344 -8.484,0 L 56.515,200.452 c -1.126,1.125 -1.758,2.651 -1.758,4.242 z m 64.551,50.066 -35.154,-35.154 135.449,-135.453 35.156,35.155 z m 85.386,-185.516 6.425,6.425 -135.45,135.452 -6.427,-6.427 z"
               id="path276" />
            <path
               inkscape:connector-curvature="0"
               d="m 185.897,153.017 c -4.392,-4.392 -10.23,-6.81 -16.441,-6.81 -12.818,0 -23.249,10.43 -23.25,23.251 0.001,12.819 10.432,23.249 23.25,23.249 6.211,0 12.05,-2.418 16.441,-6.809 4.391,-4.391 6.81,-10.23 6.809,-16.439 0,-6.212 -2.418,-12.051 -6.809,-16.442 z m -8.486,24.395 c -2.125,2.125 -4.95,3.295 -7.956,3.295 -6.203,0 -11.249,-5.047 -11.25,-11.249 10e-4,-6.204 5.047,-11.251 11.25,-11.251 3.006,0 5.831,1.17 7.956,3.295 2.124,2.125 3.294,4.949 3.294,7.956 0,3.005 -1.17,5.829 -3.294,7.954 z"
               id="path278" />
          </g>
          <g
             id="g282" />
          <g
             id="g284" />
          <g
             id="g286" />
          <g
             id="g288" />
          <g
             id="g290" />
          <g
             id="g292" />
          <g
             id="g294" />
          <g
             id="g296" />
          <g
             id="g298" />
          <g
             id="g300" />
          <g
             id="g302" />
          <g
             id="g304" />
          <g
             id="g306" />
          <g
             id="g308" />
          <g
             id="g310" />
        </g>
      </g>
      <g
         transform="translate(-161.8683,-217.53051)"
         style="display:none"
         inkscape:label="Layer 3"
         id="layer3">
        <g
           transform="matrix(0.26458333,0,0,0.26458333,-192.67602,25.788332)"
           id="g215">
          <g
             id="g155">
            <path
               inkscape:connector-curvature="0"
               d="m 84.821,210.938 c -4.646,-3.671 -10.469,-5.693 -16.396,-5.693 -8.055,0 -15.556,3.579 -20.58,9.821 -4.393,5.464 -6.382,12.3 -5.598,19.247 0.785,6.962 4.258,13.198 9.778,17.561 4.646,3.672 10.467,5.694 16.393,5.694 8.061,0 15.563,-3.586 20.583,-9.834 4.389,-5.455 6.376,-12.283 5.595,-19.227 -0.783,-6.962 -4.254,-13.202 -9.775,-17.569 z m -5.173,29.277 c -2.732,3.402 -6.826,5.354 -11.23,5.354 -3.283,0 -6.379,-1.075 -8.951,-3.108 -2.991,-2.364 -4.871,-5.735 -5.296,-9.493 -0.422,-3.743 0.652,-7.431 3.023,-10.379 2.733,-3.396 6.827,-5.344 11.231,-5.344 3.286,0 6.383,1.075 8.954,3.107 2.99,2.364 4.869,5.737 5.292,9.497 0.421,3.74 -0.651,7.42 -3.023,10.366 z"
               id="path145" />
            <path
               inkscape:connector-curvature="0"
               d="m 190.33,149.484 c 3.958,0 7.785,-0.867 11.384,-2.582 6.362,-3.044 11.141,-8.369 13.454,-14.995 2.301,-6.584 1.887,-13.669 -1.163,-19.944 -4.363,-8.994 -13.681,-14.806 -23.738,-14.806 -3.966,0 -7.801,0.87 -11.399,2.587 -6.36,3.034 -11.141,8.355 -13.458,14.983 -2.305,6.589 -1.892,13.675 1.163,19.953 4.377,8.993 13.702,14.804 23.757,14.804 z m -13.594,-30.796 c 1.254,-3.585 3.846,-6.467 7.298,-8.114 1.972,-0.94 4.068,-1.417 6.232,-1.417 5.491,0 10.571,3.157 12.943,8.048 1.645,3.384 1.868,7.199 0.63,10.745 -1.253,3.587 -3.848,6.473 -7.296,8.123 -1.965,0.937 -4.056,1.411 -6.214,1.411 -5.496,0 -10.586,-3.162 -12.968,-8.055 -1.643,-3.379 -1.865,-7.193 -0.625,-10.741 z"
               id="path147" />
            <path
               inkscape:connector-curvature="0"
               d="m 125.035,107.081 c 1.93,0.436 3.905,0.657 5.87,0.657 12.352,0 22.905,-8.354 25.665,-20.327 1.551,-6.789 0.358,-13.778 -3.356,-19.682 -3.745,-5.95 -9.598,-10.086 -16.476,-11.644 -1.938,-0.44 -3.921,-0.664 -5.895,-0.664 -12.344,0 -22.886,8.363 -25.637,20.334 -1.564,6.784 -0.379,13.774 3.336,19.682 3.748,5.958 9.607,10.094 16.493,11.644 z m -8.134,-28.634 c 1.491,-6.491 7.225,-11.025 13.942,-11.025 1.079,0 2.168,0.123 3.239,0.366 3.752,0.85 6.939,3.099 8.975,6.333 2.006,3.187 2.65,6.957 1.816,10.605 -1.471,6.381 -7.346,11.012 -13.969,11.012 -1.076,0 -2.161,-0.122 -3.229,-0.363 -3.753,-0.845 -6.94,-3.092 -8.975,-6.326 -2.002,-3.185 -2.641,-6.949 -1.799,-10.602 z"
               id="path149" />
            <path
               inkscape:connector-curvature="0"
               d="m 77.356,122.05 c 5.514,-4.369 8.981,-10.61 9.765,-17.573 0.781,-6.942 -1.202,-13.77 -5.593,-19.235 -5.032,-6.239 -12.539,-9.817 -20.594,-9.817 -5.921,0 -11.738,2.016 -16.385,5.681 -5.515,4.356 -8.984,10.587 -9.771,17.545 -0.786,6.951 1.202,13.791 5.601,19.265 5.028,6.246 12.536,9.829 20.6,9.829 5.926,-0.001 11.743,-2.023 16.377,-5.695 z M 49.731,110.393 c -2.376,-2.956 -3.451,-6.648 -3.027,-10.396 0.424,-3.753 2.302,-7.119 5.282,-9.474 2.571,-2.028 5.666,-3.1 8.949,-3.1 4.408,0 8.511,1.95 11.246,5.341 2.365,2.946 3.437,6.629 3.016,10.37 -0.423,3.764 -2.303,7.142 -5.292,9.51 -2.559,2.027 -5.646,3.099 -8.925,3.099 -4.413,0.001 -8.513,-1.951 -11.249,-5.35 z"
               id="path151" />
            <path
               inkscape:connector-curvature="0"
               d="m 322.745,63.336 c -1.037,-1.046 -2.887,-2.293 -5.806,-2.293 -3.423,0 -12.516,0 -67.74,46.992 -1.11,0.944 -2.23,1.901 -3.354,2.865 -9.867,-25.739 -27.203,-48.686 -49.542,-65.284 -25.614,-19.031 -56.114,-29.096 -88.2,-29.104 -0.01,0 -0.017,0 -0.025,0 -21.654,0 -47.976,7.566 -68.697,19.749 C 13.981,51.193 -0.005,71.163 0,92.49 c 0.008,25.748 14.53,36.518 26.199,45.171 9.515,7.057 17.03,12.63 17.034,24.844 0.003,12.213 -7.508,17.781 -17.018,24.831 -11.665,8.648 -26.184,19.412 -26.176,45.163 0.006,21.324 14.001,41.299 39.406,56.244 20.736,12.198 47.072,19.78 68.73,19.786 0.015,0 0.028,0 0.042,0 39.305,0 76.254,-15.171 104.044,-42.72 27.436,-27.197 42.695,-63.246 43.096,-101.661 9.316,-10.601 18.341,-21.138 26.58,-31.067 14.096,-16.986 24.935,-31.002 32.216,-41.657 9.646,-14.113 13.87,-22.769 8.592,-28.088 z M 203.814,257.287 c -25.529,25.308 -59.475,39.242 -95.596,39.242 -0.011,0 -0.027,0 -0.038,0 -38.707,-0.011 -96.13,-26.903 -96.141,-64.034 -0.006,-19.707 10.354,-27.388 21.323,-35.52 10.253,-7.602 21.874,-16.218 21.87,-34.474 C 55.226,144.248 43.602,135.627 33.346,128.022 22.372,119.883 12.006,112.196 12,92.487 11.995,69.686 32.963,53.954 45.463,46.605 64.161,35.612 88.736,28.511 108.078,28.511 c 0.007,0 0.015,0 0.021,0 29.491,0.008 57.517,9.254 81.048,26.736 21.702,16.125 38.268,38.761 46.994,64.049 -26.025,22.724 -54.207,48.924 -75.195,69.98 -34.859,4.512 -39.608,27.744 -43.08,44.811 -2.956,14.532 -4.875,21.558 -16.092,22.458 -2.764,0.222 -5.015,2.308 -5.446,5.047 -0.432,2.738 1.069,5.416 3.631,6.477 0.721,0.298 17.877,7.308 37.921,7.309 0.003,0 0.005,0 0.007,0 13.968,0 25.95,-3.386 35.612,-10.063 11.906,-8.228 19.979,-21.273 24.036,-38.767 13.713,-13.874 29.382,-30.604 44.876,-47.837 -3.566,29.67 -16.955,57.122 -38.597,78.576 z M 185.48,225.412 c -6.358,25.196 -22.356,37.968 -47.594,37.967 0,0 -0.004,0 -0.006,0 -6.655,0 -13.028,-0.908 -18.386,-2.04 6.4,-6.527 8.399,-16.349 10.13,-24.858 3.297,-16.208 6.415,-31.547 31.923,-35.191 z m 82.856,-94.76 c -23.785,28.337 -52.575,60.159 -76.275,84.354 l -3.669,-3.698 -16.189,-16.317 c 21.488,-21.39 49.054,-46.895 74.773,-69.216 v 0 c 2.998,-2.602 5.977,-5.171 8.913,-7.675 29.847,-25.455 45.489,-36.533 53.468,-41.354 -4.765,8.027 -15.741,23.788 -41.021,53.906 z"
               id="path153" />
          </g>
          <g
             id="g157" />
          <g
             id="g159" />
          <g
             id="g161" />
          <g
             id="g163" />
          <g
             id="g165" />
          <g
             id="g167" />
          <g
             id="g169" />
          <g
             id="g171" />
          <g
             id="g173" />
          <g
             id="g175" />
          <g
             id="g177" />
          <g
             id="g179" />
          <g
             id="g181" />
          <g
             id="g183" />
          <g
             id="g185" />
        </g>
      </g>
      <g
         transform="translate(-161.8683,-217.53051)"
         inkscape:label="Layer 4"
         id="layer4">
        <g
           transform="matrix(0.08141026,0,0,0.08141026,161.8683,217.53051)"
           id="g272">
          <path
             inkscape:connector-curvature="0"
             d="M 323.242,106.696 297.977,81.431 c -1.125,-1.126 -2.651,-1.758 -4.242,-1.758 -1.592,0 -3.117,0.632 -4.243,1.758 l -9.879,9.879 C 242.677,65.557 195.588,60.38 154.574,75.789 l 38.858,-38.858 c 2.724,1.397 5.754,2.15 8.903,2.15 5.22,0 10.128,-2.033 13.819,-5.725 7.617,-7.618 7.617,-20.015 -0.001,-27.633 C 212.464,2.032 207.557,0 202.338,0 c -5.22,0 -10.127,2.032 -13.817,5.724 -6.139,6.138 -7.323,15.375 -3.57,22.719 l -61.38,61.379 -8.39,-8.39 c -2.342,-2.344 -6.143,-2.344 -8.484,0 l -25.265,25.265 c -1.126,1.125 -1.758,2.651 -1.758,4.242 0,1.592 0.632,3.117 1.758,4.243 l 8.39,8.389 -61.378,61.377 c -2.724,-1.398 -5.754,-2.15 -8.903,-2.15 -5.219,0 -10.126,2.032 -13.817,5.723 C 2.032,192.211 0,197.118 0,202.338 c 0,5.22 2.032,10.127 5.724,13.816 3.69,3.691 8.597,5.724 13.815,5.724 5.22,0 10.126,-2.032 13.817,-5.724 6.14,-6.139 7.323,-15.375 3.57,-22.72 l 38.861,-38.86 c -15.408,41.016 -10.23,88.104 15.525,125.038 l -9.881,9.881 c -2.344,2.343 -2.344,6.142 0,8.484 l 25.265,25.265 c 1.171,1.172 2.707,1.758 4.242,1.758 1.535,0 3.071,-0.586 4.242,-1.758 l 25.265,-25.265 c 2.344,-2.343 2.344,-6.142 0,-8.484 L 115.18,264.228 c -2.342,-2.344 -6.143,-2.344 -8.484,0 l -6.739,6.739 C 72.207,229.646 72.207,175.028 99.956,133.706 l 6.74,6.739 c 1.171,1.171 2.707,1.757 4.242,1.757 1.535,0 3.071,-0.586 4.242,-1.757 l 25.265,-25.264 c 1.126,-1.126 1.758,-2.651 1.758,-4.243 0,-1.591 -0.632,-3.117 -1.758,-4.242 l -6.74,-6.74 c 41.32,-27.747 95.936,-27.748 137.262,0 l -6.739,6.739 c -2.343,2.343 -2.343,6.142 0,8.484 l 25.264,25.265 c 1.126,1.126 2.651,1.758 4.243,1.758 1.591,0 3.117,-0.632 4.242,-1.758 l 25.265,-25.265 c 2.344,-2.341 2.344,-6.14 0,-8.483 z M 110.94,276.956 127.719,293.735 110.94,310.514 94.16,293.735 Z M 197.005,14.208 C 198.43,12.784 200.323,12 202.338,12 c 2.014,0 3.907,0.784 5.331,2.208 2.94,2.94 2.94,7.724 10e-4,10.664 -1.425,1.424 -3.319,2.209 -5.334,2.209 -2.012,0 -3.903,-0.783 -5.327,-2.204 l -0.003,-0.004 c -0.001,-0.001 -0.003,-0.002 -0.003,-0.002 -2.938,-2.941 -2.937,-7.724 0.002,-10.663 z M 24.872,207.669 c -1.425,1.425 -3.318,2.209 -5.333,2.209 -2.014,0 -3.906,-0.784 -5.331,-2.209 C 12.784,206.245 12,204.352 12,202.338 c 0,-2.015 0.784,-3.909 2.208,-5.333 1.425,-1.424 3.318,-2.208 5.332,-2.208 2.012,0 3.904,0.783 5.328,2.203 l 0.003,0.004 c 0.001,0.001 0.003,0.002 0.003,0.002 2.938,2.941 2.937,7.724 -0.002,10.663 z m 86.068,-79.951 -8.388,-8.387 c -0.001,-0.001 -0.001,-0.002 -0.001,-0.002 -0.002,-0.002 -0.003,-0.003 -0.004,-0.003 l -8.388,-8.388 16.779,-16.779 8.375,8.374 c 0.005,0.006 0.008,0.012 0.013,0.017 0.005,0.005 0.011,0.008 0.016,0.013 l 0.766,0.766 c 0.016,0.016 0.031,0.031 0.047,0.047 l 7.564,7.564 z m 182.795,0 -16.778,-16.779 16.778,-16.779 16.779,16.779 z"
             id="path217" />
          <g
             id="g219" />
          <g
             id="g221" />
          <g
             id="g223" />
          <g
             id="g225" />
          <g
             id="g227" />
          <g
             id="g229" />
          <g
             id="g231" />
          <g
             id="g233" />
          <g
             id="g235" />
          <g
             id="g237" />
          <g
             id="g239" />
          <g
             id="g241" />
          <g
             id="g243" />
          <g
             id="g245" />
          <g
             id="g247" />
        </g>
      </g>
    </g>
  </g>
</svg>
