<?xml version="1.0" encoding="UTF-8" standalone="no"?>
<!-- Created with Inkscape (http://www.inkscape.org/) -->

<svg
   xmlns:dc="http://purl.org/dc/elements/1.1/"
   xmlns:cc="http://creativecommons.org/ns#"
   xmlns:rdf="http://www.w3.org/1999/02/22-rdf-syntax-ns#"
   xmlns:svg="http://www.w3.org/2000/svg"
   xmlns="http://www.w3.org/2000/svg"
   xmlns:sodipodi="http://sodipodi.sourceforge.net/DTD/sodipodi-0.dtd"
   xmlns:inkscape="http://www.inkscape.org/namespaces/inkscape"
   width="13.229167mm"
   height="11.885123mm"
   viewBox="0 0 13.229167 11.885123"
   version="1.1"
   id="svg8"
   inkscape:version="0.92.1 r15371"
   sodipodi:docname="palette.svg">
  <defs
     id="defs2" />
  <sodipodi:namedview
     id="base"
     pagecolor="#ffffff"
     bordercolor="#666666"
     borderopacity="1.0"
     inkscape:pageopacity="0.0"
     inkscape:pageshadow="2"
     inkscape:zoom="5.6"
     inkscape:cx="43.076521"
     inkscape:cy="10.04862"
     inkscape:document-units="mm"
     inkscape:current-layer="layer1"
     showgrid="false"
     inkscape:window-width="1000"
     inkscape:window-height="761"
     inkscape:window-x="909"
     inkscape:window-y="243"
     inkscape:window-maximized="0" />
  <metadata
     id="metadata5">
    <rdf:RDF>
      <cc:Work
         rdf:about="">
        <dc:format>image/svg+xml</dc:format>
        <dc:type
           rdf:resource="http://purl.org/dc/dcmitype/StillImage" />
        <dc:title></dc:title>
      </cc:Work>
    </rdf:RDF>
  </metadata>
  <g
     inkscape:label="Layer 1"
     inkscape:groupmode="layer"
     id="layer1"
     transform="translate(-122.70052,-145.65791)">
    <g
       transform="matrix(0.50000001,0,0,0.50000001,41.766365,36.125929)"
       style="display:inline"
       inkscape:label="Layer 3"
       id="layer3">
      <g
         transform="matrix(0.08140021,0,0,0.08140021,161.8683,217.71988)"
         id="g215">
        <g
           id="g155">
          <path
             inkscape:connector-curvature="0"
             d="m 84.821,210.938 c -4.646,-3.671 -10.469,-5.693 -16.396,-5.693 -8.055,0 -15.556,3.579 -20.58,9.821 -4.393,5.464 -6.382,12.3 -5.598,19.247 0.785,6.962 4.258,13.198 9.778,17.561 4.646,3.672 10.467,5.694 16.393,5.694 8.061,0 15.563,-3.586 20.583,-9.834 4.389,-5.455 6.376,-12.283 5.595,-19.227 -0.783,-6.962 -4.254,-13.202 -9.775,-17.569 z m -5.173,29.277 c -2.732,3.402 -6.826,5.354 -11.23,5.354 -3.283,0 -6.379,-1.075 -8.951,-3.108 -2.991,-2.364 -4.871,-5.735 -5.296,-9.493 -0.422,-3.743 0.652,-7.431 3.023,-10.379 2.733,-3.396 6.827,-5.344 11.231,-5.344 3.286,0 6.383,1.075 8.954,3.107 2.99,2.364 4.869,5.737 5.292,9.497 0.421,3.74 -0.651,7.42 -3.023,10.366 z"
             id="path145" />
          <path
             inkscape:connector-curvature="0"
             d="m 190.33,149.484 c 3.958,0 7.785,-0.867 11.384,-2.582 6.362,-3.044 11.141,-8.369 13.454,-14.995 2.301,-6.584 1.887,-13.669 -1.163,-19.944 -4.363,-8.994 -13.681,-14.806 -23.738,-14.806 -3.966,0 -7.801,0.87 -11.399,2.587 -6.36,3.034 -11.141,8.355 -13.458,14.983 -2.305,6.589 -1.892,13.675 1.163,19.953 4.377,8.993 13.702,14.804 23.757,14.804 z m -13.594,-30.796 c 1.254,-3.585 3.846,-6.467 7.298,-8.114 1.972,-0.94 4.068,-1.417 6.232,-1.417 5.491,0 10.571,3.157 12.943,8.048 1.645,3.384 1.868,7.199 0.63,10.745 -1.253,3.587 -3.848,6.473 -7.296,8.123 -1.965,0.937 -4.056,1.411 -6.214,1.411 -5.496,0 -10.586,-3.162 -12.968,-8.055 -1.643,-3.379 -1.865,-7.193 -0.625,-10.741 z"
             id="path147" />
          <path
             inkscape:connector-curvature="0"
             d="m 125.035,107.081 c 1.93,0.436 3.905,0.657 5.87,0.657 12.352,0 22.905,-8.354 25.665,-20.327 1.551,-6.789 0.358,-13.778 -3.356,-19.682 -3.745,-5.95 -9.598,-10.086 -16.476,-11.644 -1.938,-0.44 -3.921,-0.664 -5.895,-0.664 -12.344,0 -22.886,8.363 -25.637,20.334 -1.564,6.784 -0.379,13.774 3.336,19.682 3.748,5.958 9.607,10.094 16.493,11.644 z m -8.134,-28.634 c 1.491,-6.491 7.225,-11.025 13.942,-11.025 1.079,0 2.168,0.123 3.239,0.366 3.752,0.85 6.939,3.099 8.975,6.333 2.006,3.187 2.65,6.957 1.816,10.605 -1.471,6.381 -7.346,11.012 -13.969,11.012 -1.076,0 -2.161,-0.122 -3.229,-0.363 -3.753,-0.845 -6.94,-3.092 -8.975,-6.326 -2.002,-3.185 -2.641,-6.949 -1.799,-10.602 z"
             id="path149" />
          <path
             inkscape:connector-curvature="0"
             d="m 77.356,122.05 c 5.514,-4.369 8.981,-10.61 9.765,-17.573 0.781,-6.942 -1.202,-13.77 -5.593,-19.235 -5.032,-6.239 -12.539,-9.817 -20.594,-9.817 -5.921,0 -11.738,2.016 -16.385,5.681 -5.515,4.356 -8.984,10.587 -9.771,17.545 -0.786,6.951 1.202,13.791 5.601,19.265 5.028,6.246 12.536,9.829 20.6,9.829 5.926,-0.001 11.743,-2.023 16.377,-5.695 z M 49.731,110.393 c -2.376,-2.956 -3.451,-6.648 -3.027,-10.396 0.424,-3.753 2.302,-7.119 5.282,-9.474 2.571,-2.028 5.666,-3.1 8.949,-3.1 4.408,0 8.511,1.95 11.246,5.341 2.365,2.946 3.437,6.629 3.016,10.37 -0.423,3.764 -2.303,7.142 -5.292,9.51 -2.559,2.027 -5.646,3.099 -8.925,3.099 -4.413,0.001 -8.513,-1.951 -11.249,-5.35 z"
             id="path151" />
          <path
             inkscape:connector-curvature="0"
             d="m 322.745,63.336 c -1.037,-1.046 -2.887,-2.293 -5.806,-2.293 -3.423,0 -12.516,0 -67.74,46.992 -1.11,0.944 -2.23,1.901 -3.354,2.865 -9.867,-25.739 -27.203,-48.686 -49.542,-65.284 -25.614,-19.031 -56.114,-29.096 -88.2,-29.104 -0.01,0 -0.017,0 -0.025,0 -21.654,0 -47.976,7.566 -68.697,19.749 C 13.981,51.193 -0.005,71.163 0,92.49 c 0.008,25.748 14.53,36.518 26.199,45.171 9.515,7.057 17.03,12.63 17.034,24.844 0.003,12.213 -7.508,17.781 -17.018,24.831 -11.665,8.648 -26.184,19.412 -26.176,45.163 0.006,21.324 14.001,41.299 39.406,56.244 20.736,12.198 47.072,19.78 68.73,19.786 0.015,0 0.028,0 0.042,0 39.305,0 76.254,-15.171 104.044,-42.72 27.436,-27.197 42.695,-63.246 43.096,-101.661 9.316,-10.601 18.341,-21.138 26.58,-31.067 14.096,-16.986 24.935,-31.002 32.216,-41.657 9.646,-14.113 13.87,-22.769 8.592,-28.088 z M 203.814,257.287 c -25.529,25.308 -59.475,39.242 -95.596,39.242 -0.011,0 -0.027,0 -0.038,0 -38.707,-0.011 -96.13,-26.903 -96.141,-64.034 -0.006,-19.707 10.354,-27.388 21.323,-35.52 10.253,-7.602 21.874,-16.218 21.87,-34.474 C 55.226,144.248 43.602,135.627 33.346,128.022 22.372,119.883 12.006,112.196 12,92.487 11.995,69.686 32.963,53.954 45.463,46.605 64.161,35.612 88.736,28.511 108.078,28.511 c 0.007,0 0.015,0 0.021,0 29.491,0.008 57.517,9.254 81.048,26.736 21.702,16.125 38.268,38.761 46.994,64.049 -26.025,22.724 -54.207,48.924 -75.195,69.98 -34.859,4.512 -39.608,27.744 -43.08,44.811 -2.956,14.532 -4.875,21.558 -16.092,22.458 -2.764,0.222 -5.015,2.308 -5.446,5.047 -0.432,2.738 1.069,5.416 3.631,6.477 0.721,0.298 17.877,7.308 37.921,7.309 0.003,0 0.005,0 0.007,0 13.968,0 25.95,-3.386 35.612,-10.063 11.906,-8.228 19.979,-21.273 24.036,-38.767 13.713,-13.874 29.382,-30.604 44.876,-47.837 -3.566,29.67 -16.955,57.122 -38.597,78.576 z M 185.48,225.412 c -6.358,25.196 -22.356,37.968 -47.594,37.967 0,0 -0.004,0 -0.006,0 -6.655,0 -13.028,-0.908 -18.386,-2.04 6.4,-6.527 8.399,-16.349 10.13,-24.858 3.297,-16.208 6.415,-31.547 31.923,-35.191 z m 82.856,-94.76 c -23.785,28.337 -52.575,60.159 -76.275,84.354 l -3.669,-3.698 -16.189,-16.317 c 21.488,-21.39 49.054,-46.895 74.773,-69.216 v 0 c 2.998,-2.602 5.977,-5.171 8.913,-7.675 29.847,-25.455 45.489,-36.533 53.468,-41.354 -4.765,8.027 -15.741,23.788 -41.021,53.906 z"
             id="path153" />
        </g>
        <g
           id="g157" />
        <g
           id="g159" />
        <g
           id="g161" />
        <g
           id="g163" />
        <g
           id="g165" />
        <g
           id="g167" />
        <g
           id="g169" />
        <g
           id="g171" />
        <g
           id="g173" />
        <g
           id="g175" />
        <g
           id="g177" />
        <g
           id="g179" />
        <g
           id="g181" />
        <g
           id="g183" />
        <g
           id="g185" />
      </g>
    </g>
  </g>
</svg>
