<?xml version="1.0" encoding="UTF-8" standalone="no"?>
<!-- Created with Inkscape (http://www.inkscape.org/) -->

<svg
   xmlns:dc="http://purl.org/dc/elements/1.1/"
   xmlns:cc="http://creativecommons.org/ns#"
   xmlns:rdf="http://www.w3.org/1999/02/22-rdf-syntax-ns#"
   xmlns:svg="http://www.w3.org/2000/svg"
   xmlns="http://www.w3.org/2000/svg"
   xmlns:sodipodi="http://sodipodi.sourceforge.net/DTD/sodipodi-0.dtd"
   xmlns:inkscape="http://www.inkscape.org/namespaces/inkscape"
   width="123.98188mm"
   height="141.02406mm"
   viewBox="0 0 123.98188 141.02406"
   version="1.1"
   id="svg8"
   inkscape:version="0.92.1 r15371"
   sodipodi:docname="logo.svg">
  <defs
     id="defs2" />
  <sodipodi:namedview
     id="base"
     pagecolor="#ffffff"
     bordercolor="#666666"
     borderopacity="1.0"
     inkscape:pageopacity="0.0"
     inkscape:pageshadow="2"
     inkscape:zoom="0.7"
     inkscape:cx="270.13679"
     inkscape:cy="233.71922"
     inkscape:document-units="mm"
     inkscape:current-layer="layer1"
     showgrid="false"
     inkscape:window-width="1920"
     inkscape:window-height="1017"
     inkscape:window-x="-8"
     inkscape:window-y="-8"
     inkscape:window-maximized="1" />
  <metadata
     id="metadata5">
    <rdf:RDF>
      <cc:Work
         rdf:about="">
        <dc:format>image/svg+xml</dc:format>
        <dc:type
           rdf:resource="http://purl.org/dc/dcmitype/StillImage" />
        <dc:title />
      </cc:Work>
    </rdf:RDF>
  </metadata>
  <g
     inkscape:label="Layer 1"
     inkscape:groupmode="layer"
     id="layer1"
     transform="translate(-1.2493633,-0.45432701)"
     style="opacity:0.7">
    <path
       id="path3688"
       d="m 84.259518,46.367999 c -5.92634,5.55786 -12.842398,9.9147 -19.661964,14.27152 -11.027545,6.77372 -22.263285,13.24235 -34.011703,18.68715 -0.926947,0.39169 -1.836013,0.82873 -2.78084,1.17508 -0.652507,0.23919 -1.310545,0.51976 -2.00302,0.57854 -1.300332,0.11038 -1.812263,-0.62941 -1.313143,-1.98726 0.532159,-1.44773 3.697986,-4.73122 4.384355,-5.50443 1.317945,-1.34156 2.621875,-2.69704 3.95383,-4.02469 2.447089,-2.43918 8.516744,-8.31405 10.813555,-10.54542 6.658009,-6.46831 13.28846,-12.96363 19.906641,-19.47267 5.390528,-5.234703 10.669871,-10.58842 16.159219,-15.72118 0.98968,-0.925391 4.28303,-4.016095 5.7929,-4.927984 2.85235,-1.722686 5.82238,-3.242543 8.73357,-4.863814 0.48969,0.08666 1.12985,-0.103653 1.46908,0.259987 1.0169,1.090092 -0.006,3.318256 -0.36825,4.202023 -0.43754,1.067652 -0.97398,2.092854 -1.50607,3.116675 -1.55699,2.995914 -3.07702,5.491088 -4.79865,8.427979 -8.44972,14.208954 -17.85356,27.810054 -27.416474,41.283234 -10.440318,14.74454 -21.336664,29.153671 -32.366807,43.459181 -5.556139,7.11072 -11.206811,14.153 -17.159237,20.93731 -3.6341694,3.99731 -1.82349,3.0247 -10.5951174,5.67971 -0.429701,0.13006 0.526149,-0.72819 0.809082,-1.07677 0.435485,-0.53653 0.896792,-1.05158 1.345189,-1.57737 6.6458524,-7.56282 12.9725314,-15.39334 19.2734544,-23.24312 10.39214,-13.03691 21.03275,-25.872621 31.60033,-38.766991 10.109906,-12.35027 20.597854,-24.3821 30.87563,-36.59139 8.0605,-9.634341 15.993662,-19.376439 24.245982,-28.848263 1.77513,-2.087798 3.65257,-4.080748 5.60318,-6.003621 0.3021,-0.297802 0.6124,-0.58734 0.90977,-0.88987 0.10852,-0.110408 0.16548,-0.286063 0.30724,-0.348285 2.86955,-1.259564 5.79023,-2.399289 8.68534,-3.59893299 -0.33125,0.386193 -0.63717,0.79564099 -0.99375,1.15858099 -0.61406,0.625009 -1.27659,1.200473 -1.9143,1.801339 -2.57884,2.429875 -3.76468,3.53719 -6.44024,6.137883 -4.27325,4.153673 -5.09376,5.012963 -9.45103,9.38304 -6.880492,7.174032 -13.767142,14.434572 -19.485552,22.597549 -3.19674,4.56331 -3.44997,5.36328 -5.96273,10.08276 -0.54703,1.43645 -1.22638,2.82927 -1.64109,4.30936 -0.88727,3.16659 -1.07651,6.8399 1.36645,9.41899 1.90339,2.00943 3.44398,2.08188 6.02112,2.87405 1.4412,0.0595 2.88403,0.26942 4.32359,0.17852 3.37431,-0.21308 6.85071,-1.15111 9.979952,-2.37634 1.72916,-0.67703 3.37087,-1.55927 5.04806,-2.35642 0.15369,-0.073 -0.61217,0.2861 -0.47637,0.18356 1.2787,-0.96549 2.61278,-1.85537 3.91917,-2.78305 0,0 6.10738,-2.4073 6.10738,-2.4073 v 0 c -1.41989,0.99016 -2.78512,2.06373 -4.25967,2.97048 -7.94477,4.88556 -16.320842,10.00696 -25.871712,10.78096 -1.59363,0.12915 -3.19741,-0.0442 -4.79612,-0.0663 -2.80593,-0.76502 -4.75358,-0.80954 -6.779738,-3.08948 -2.617065,-2.94485 -1.840947,-7.21951 -0.643204,-10.53763 0.573084,-1.58763 1.406728,-3.06872 2.110094,-4.60308 2.963908,-4.98262 3.228888,-5.69036 6.793268,-10.5328 5.8725,-7.97818 12.63922,-15.242988 19.278122,-22.574619 4.41691,-4.762979 8.89352,-9.488114 13.1642,-14.384459 0.42661,-0.489119 0.82302,-1.004109 1.25119,-1.491874 0.17629,-0.200832 0.37404,-0.381762 0.56106,-0.57264 2.93901,-1.320732 5.86182,-2.678147 8.81704,-3.96219399 0.28872,-0.125449 -0.55409,0.301932 -0.81115,0.48362899 -0.46658,0.329785 -0.91132,0.689711 -1.35616,1.048272 -2.50798,2.021543 -4.85689,4.227131 -7.09445,6.544024 -1.14106,1.173204 -2.29798,2.331196 -3.42319,3.519611 -7.94946,8.396023 -15.308552,17.327722 -22.794702,26.13147 -10.34935,12.28539 -20.897203,24.40113 -31.201838,36.72436 -10.422559,12.62716 -20.893973,25.225511 -30.680596,38.358271 -5.428691,7.30116 -10.876205,14.59047 -16.241924,21.93734 -0.299754,0.45143 -0.59976,0.90269 -0.899263,1.35428 -0.151154,0.22791 -0.208891,0.56035 -0.452705,0.68424 -2.9163404,1.48176 -5.9455494,2.7301 -8.9249994,4.08049 -0.207293,0.094 0.420968,-0.18104 0.607891,-0.31088 0.390499,-0.27124 0.754838,-0.57899 1.11691,-0.88715 0.546587,-0.46519 1.07202,-0.95468 1.608029,-1.43202 7.1806544,-6.95965 13.7998204,-14.4668 20.1907934,-22.1529 11.722137,-14.27097 23.183545,-28.765791 33.659307,-43.987981 1.821897,-2.66075 3.6723,-5.30222 5.465691,-7.98227 6.913959,-10.33226 13.350274,-20.99176 19.136354,-31.997151 1.70812,-3.438853 3.60418,-6.903011 4.69991,-10.608087 0.17865,-0.604092 0.27484,-1.230421 0.3732,-1.852647 0.0391,-0.247465 0.16142,-0.532424 0.0383,-0.750639 -0.10121,-0.179411 -0.38721,-0.140697 -0.58081,-0.211048 1.63241,-1.049861 3.25467,-2.115671 4.89723,-3.149581 1.12802,-0.71003 -2.27616,1.393097 -3.35351,2.177886 -3.18053,2.316837 -6.72395,5.440418 -9.6008,8.020971 -5.346,4.795395 -7.283452,6.732383 -12.579029,11.795056 -6.36801,6.29681 -12.703868,12.62038 -18.926037,19.06203 -2.896867,2.99905 -6.470298,6.7348 -9.28865,9.88816 -1.062667,1.18899 -2.079866,2.41785 -3.1198,3.62677 -4.823023,6.56125 -0.02381,-0.16083 -2.969789,4.37164 -0.118399,0.18216 -0.431017,0.27773 -0.424133,0.49488 0.03055,0.96348 4.233881,-1.08419 4.193064,-0.88306 3.095392,-1.30976 3.691612,-1.51688 6.90984,-3.09508 1.53611,-0.7533 3.02914,-1.59337 4.573677,-2.32923 0.09577,-0.0456 0.225179,0.0495 0.318231,-0.001 3.898812,-2.13399 7.120043,-4.17619 10.903463,-6.49915 4.976971,-3.26572 10.056717,-6.50055 14.41592,-10.59281 0.806736,-0.75734 1.243471,-1.30119 1.903763,-2.08111 0,0 8.79968,-3.72435 8.79968,-3.72435 z"
       inkscape:connector-curvature="0"
       style="stroke-width:0.26458332" />
  </g>
</svg>
